# xmcd
#
# Track frame offsets:
#	150
#	15426
#	32086
#	50290
#	68705
#	82937
#	104947
#	122426
#	143528
#	161263
#	183022
#	198029
#	217918
#	236047
#	258518
#	270979
#	288200
#
# Disc length: 4071 seconds
#
# Revision: 1
# Processed by: cddbd v1.5.2PL0 Copyright (c) Steve Scherf et al.
# Submitted via: audiograbber 1.83.01
#
DISCID=d60fe511
DTITLE=Various Artist - TTFP-07&08 MIXED COUNTRY FUNPACK
DYEAR=1900
DGENRE=KARAOKE
TTITLE0=Leann Rimes - Big Deal
TTITLE1=Sara Evans - Born To Fly
TTITLE2=Faith Hill - Breathe
TTITLE3=Jo Dee Messina - Burn
TTITLE4=Leann Rimes - But Do I Love You
TTITLE5=Dixie Chicks - Cowboy Take Me Away
TTITLE6=Garth Brooks - The Dance
TTITLE7=Dixie Chicks - Goodbye Earl
TTITLE8=Tim Mcgraw - Grown Men Don`t Cry
TTITLE9=Brad Paisley - He Didn`t Have To Be
TTITLE10=S.Kersaw And L.Morgan - He Drinks Tequila
TTITLE11=Leann Rimes - How Do I Live
TTITLE12=Lee Ann Womack - I Hope You Dance
TTITLE13=Lee Ann Womack - I Know Why The River Runs
TTITLE14=Dolly Pardon - I Will Always Love You
TTITLE15=Garth Brooks - If Tomorrow Never Comes
TTITLE16=Travis Tritt - Its A Great Day To Be Alive
EXTD=TOP TUNES KARAOKE
EXTT0=
EXTT1=
EXTT2=
EXTT3=
EXTT4=
EXTT5=
EXTT6=
EXTT7=
EXTT8=
EXTT9=
EXTT10=
EXTT11=
EXTT12=
EXTT13=
EXTT14=
EXTT15=
EXTT16=
PLAYORDER=
